<svg width="28" height="23" viewBox="0 0 28 23" fill="none" xmlns="http://www.w3.org/2000/svg">
<path d="M1 19.6667V8C1 6.71133 2.16406 5.66667 3.6 5.66667H4.25C5.06836 5.66667 5.83898 5.32088 6.33 4.73333L9.216 1.28C9.3633 1.10374 9.59449 1 9.84 1H18.16C18.4056 1 18.6367 1.10374 18.784 1.28L21.67 4.73333C22.161 5.32088 22.9316 5.66667 23.75 5.66667H24.4C25.836 5.66667 27 6.71133 27 8V19.6667C27 20.9554 25.836 22 24.4 22H3.6C2.16406 22 1 20.9554 1 19.6667Z" stroke="#FF4646" stroke-width="1.5" stroke-linecap="round" stroke-linejoin="round"/>
<path d="M13.9999 17.3335C16.8718 17.3335 19.1999 15.2441 19.1999 12.6668C19.1999 10.0895 16.8718 8.00012 13.9999 8.00012C11.128 8.00012 8.79993 10.0895 8.79993 12.6668C8.79993 15.2441 11.128 17.3335 13.9999 17.3335Z" stroke="#FF4646" stroke-width="1.5" stroke-linecap="round" stroke-linejoin="round"/>
</svg>
