<svg width="29" height="29" viewBox="0 0 29 29" fill="none" xmlns="http://www.w3.org/2000/svg">
<path d="M20.3847 28V24.1307C20.4366 23.4879 20.3475 22.8415 20.123 22.2349C19.8986 21.6282 19.5441 21.0749 19.0832 20.6119C23.4309 20.14 28.0001 18.5357 28.0001 11.1745C27.9997 9.29223 27.2561 7.4821 25.9232 6.11881C26.5543 4.47201 26.5097 2.65173 25.7985 1.03612C25.7985 1.03612 24.1647 0.564255 20.3847 3.03145C17.2112 2.19398 13.8659 2.19398 10.6924 3.03145C6.91239 0.564255 5.27855 1.03612 5.27855 1.03612C4.56737 2.65173 4.52274 4.47201 5.15393 6.11881C3.81102 7.49222 3.06665 9.31871 3.07701 11.215C3.07701 18.5222 7.64622 20.1265 11.9939 20.6523C11.5384 21.1107 11.1871 21.6573 10.9628 22.2566C10.7386 22.8558 10.6464 23.4945 10.6924 24.1307V28" stroke="#FF4444" stroke-width="2" stroke-linecap="round" stroke-linejoin="round"/>
<path d="M10.6923 25.3034C6.53846 26.6154 3.07692 25.3034 1 21.2588" stroke="#FF4444" stroke-width="2" stroke-linecap="round" stroke-linejoin="round"/>
</svg>
