<svg width="28" height="22" viewBox="0 0 28 22" fill="none" xmlns="http://www.w3.org/2000/svg">
<path d="M16.6 10.8694L12.05 13.6495V8.08936L16.6 10.8694Z" fill="#FF4444" fill-opacity="0.89" stroke="#FF4444" stroke-opacity="0.89" stroke-width="2" stroke-linecap="round" stroke-linejoin="round"/>
<path d="M1 11.8529V9.88585C1 5.86119 1 3.84888 2.17714 2.5541C3.35429 1.25931 5.20753 1.20327 8.914 1.09117C10.6703 1.03806 12.4644 1 14 1C15.5356 1 17.3297 1.03806 19.086 1.09117C22.7924 1.20327 24.6457 1.25931 25.8228 2.5541C27 3.84888 27 5.86119 27 9.88585V11.8529C27 15.8775 27 17.8899 25.8228 19.1845C24.6457 20.4794 22.7925 20.5354 19.0861 20.6476C17.3297 20.7007 15.5356 20.7387 14 20.7387C12.4644 20.7387 10.6703 20.7007 8.91388 20.6476C5.20746 20.5354 3.35426 20.4794 2.17712 19.1845C1 17.8899 1 15.8775 1 11.8529Z" stroke="#FF4444" stroke-opacity="0.89" stroke-width="2"/>
</svg>
